# xmcd
# 
# Track frame offsets:
#     150
#     11232
#     30042
#     57680
#     92787
# 
# Disc length: 1738
# 
# Revision: 0
# Processed by: cddbd v1.5.2PL0 Copyright (c) Steve Scherf et al.
# Submitted via: fre:ac v1.0.17
# 
DISCID=3706c805
DTITLE=Aunt Mary - Barbed Wire Waves (Swedish Radio 1971)
DYEAR=2009
DGENRE=Hard Rock
TTITLE0=Intro
TTITLE1=Stop Your Wishful Thinking
TTITLE2=In The Hall Of The Mountain King
TTITLE3=Listen To The Music
TTITLE4=I Wish I Could
EXTD=
EXTT0=
EXTT1=
EXTT2=
EXTT3=
EXTT4=
PLAYORDER=
